<svg shape-rendering="geometricPrecision" xmlns="http://www.w3.org/2000/svg"  class="qrcode" viewBox="0 0 29 29" preserveAspectRatio="xMidYMid" width="1024" height="1024">
<rect fill="#FFFFFF" width="100%" height="100%"/>
<path class="modules" fill="#000000" d="M10 2 m0 0h1v1h-1z M11 2 m0 0h1v1h-1z M16 2 m0 0h1v1h-1z M17 2 m0 0h1v1h-1z M18 2 m0 0h1v1h-1z M10 3 m0 0h1v1h-1z M12 3 m0 0h1v1h-1z M13 3 m0 0h1v1h-1z M18 3 m0 0h1v1h-1z M11 4 m0 0h1v1h-1z M12 4 m0 0h1v1h-1z M13 4 m0 0h1v1h-1z M14 4 m0 0h1v1h-1z M15 4 m0 0h1v1h-1z M17 4 m0 0h1v1h-1z M10 5 m0 0h1v1h-1z M13 5 m0 0h1v1h-1z M14 5 m0 0h1v1h-1z M15 5 m0 0h1v1h-1z M16 5 m0 0h1v1h-1z M12 6 m0 0h1v1h-1z M13 6 m0 0h1v1h-1z M14 6 m0 0h1v1h-1z M16 6 m0 0h1v1h-1z M17 6 m0 0h1v1h-1z M11 7 m0 0h1v1h-1z M12 7 m0 0h1v1h-1z M13 7 m0 0h1v1h-1z M16 7 m0 0h1v1h-1z M10 8 m0 0h1v1h-1z M12 8 m0 0h1v1h-1z M14 8 m0 0h1v1h-1z M16 8 m0 0h1v1h-1z M18 8 m0 0h1v1h-1z M10 9 m0 0h1v1h-1z M11 9 m0 0h1v1h-1z M12 9 m0 0h1v1h-1z M13 9 m0 0h1v1h-1z M16 9 m0 0h1v1h-1z M17 9 m0 0h1v1h-1z M18 9 m0 0h1v1h-1z M2 10 m0 0h1v1h-1z M4 10 m0 0h1v1h-1z M5 10 m0 0h1v1h-1z M7 10 m0 0h1v1h-1z M8 10 m0 0h1v1h-1z M9 10 m0 0h1v1h-1z M13 10 m0 0h1v1h-1z M16 10 m0 0h1v1h-1z M18 10 m0 0h1v1h-1z M20 10 m0 0h1v1h-1z M23 10 m0 0h1v1h-1z M25 10 m0 0h1v1h-1z M26 10 m0 0h1v1h-1z M5 11 m0 0h1v1h-1z M12 11 m0 0h1v1h-1z M18 11 m0 0h1v1h-1z M19 11 m0 0h1v1h-1z M21 11 m0 0h1v1h-1z M25 11 m0 0h1v1h-1z M3 12 m0 0h1v1h-1z M6 12 m0 0h1v1h-1z M8 12 m0 0h1v1h-1z M16 12 m0 0h1v1h-1z M19 12 m0 0h1v1h-1z M21 12 m0 0h1v1h-1z M22 12 m0 0h1v1h-1z M2 13 m0 0h1v1h-1z M4 13 m0 0h1v1h-1z M5 13 m0 0h1v1h-1z M6 13 m0 0h1v1h-1z M7 13 m0 0h1v1h-1z M11 13 m0 0h1v1h-1z M13 13 m0 0h1v1h-1z M14 13 m0 0h1v1h-1z M15 13 m0 0h1v1h-1z M16 13 m0 0h1v1h-1z M17 13 m0 0h1v1h-1z M18 13 m0 0h1v1h-1z M20 13 m0 0h1v1h-1z M21 13 m0 0h1v1h-1z M23 13 m0 0h1v1h-1z M24 13 m0 0h1v1h-1z M3 14 m0 0h1v1h-1z M5 14 m0 0h1v1h-1z M6 14 m0 0h1v1h-1z M8 14 m0 0h1v1h-1z M10 14 m0 0h1v1h-1z M13 14 m0 0h1v1h-1z M14 14 m0 0h1v1h-1z M16 14 m0 0h1v1h-1z M17 14 m0 0h1v1h-1z M18 14 m0 0h1v1h-1z M19 14 m0 0h1v1h-1z M20 14 m0 0h1v1h-1z M21 14 m0 0h1v1h-1z M22 14 m0 0h1v1h-1z M24 14 m0 0h1v1h-1z M25 14 m0 0h1v1h-1z M26 14 m0 0h1v1h-1z
M4 15 m0 0h1v1h-1z M5 15 m0 0h1v1h-1z M6 15 m0 0h1v1h-1z M7 15 m0 0h1v1h-1z M10 15 m0 0h1v1h-1z M13 15 m0 0h1v1h-1z M14 15 m0 0h1v1h-1z M15 15 m0 0h1v1h-1z M16 15 m0 0h1v1h-1z M17 15 m0 0h1v1h-1z M18 15 m0 0h1v1h-1z M20 15 m0 0h1v1h-1z M21 15 m0 0h1v1h-1z M22 15 m0 0h1v1h-1z M26 15 m0 0h1v1h-1z M3 16 m0 0h1v1h-1z M4 16 m0 0h1v1h-1z M5 16 m0 0h1v1h-1z M7 16 m0 0h1v1h-1z M8 16 m0 0h1v1h-1z M10 16 m0 0h1v1h-1z M13 16 m0 0h1v1h-1z M15 16 m0 0h1v1h-1z M19 16 m0 0h1v1h-1z M22 16 m0 0h1v1h-1z M24 16 m0 0h1v1h-1z M25 16 m0 0h1v1h-1z M2 17 m0 0h1v1h-1z M5 17 m0 0h1v1h-1z M9 17 m0 0h1v1h-1z M12 17 m0 0h1v1h-1z M13 17 m0 0h1v1h-1z M18 17 m0 0h1v1h-1z M20 17 m0 0h1v1h-1z M21 17 m0 0h1v1h-1z M22 17 m0 0h1v1h-1z M26 17 m0 0h1v1h-1z M4 18 m0 0h1v1h-1z M5 18 m0 0h1v1h-1z M6 18 m0 0h1v1h-1z M7 18 m0 0h1v1h-1z M8 18 m0 0h1v1h-1z M9 18 m0 0h1v1h-1z M10 18 m0 0h1v1h-1z M12 18 m0 0h1v1h-1z M14 18 m0 0h1v1h-1z M17 18 m0 0h1v1h-1z M18 18 m0 0h1v1h-1z M19 18 m0 0h1v1h-1z M20 18 m0 0h1v1h-1z M21 18 m0 0h1v1h-1z M22 18 m0 0h1v1h-1z M23 18 m0 0h1v1h-1z M24 18 m0 0h1v1h-1z M25 18 m0 0h1v1h-1z M26 18 m0 0h1v1h-1z M10 19 m0 0h1v1h-1z M12 19 m0 0h1v1h-1z M15 19 m0 0h1v1h-1z M16 19 m0 0h1v1h-1z M18 19 m0 0h1v1h-1z M22 19 m0 0h1v1h-1z M24 19 m0 0h1v1h-1z M26 19 m0 0h1v1h-1z M10 20 m0 0h1v1h-1z M11 20 m0 0h1v1h-1z M12 20 m0 0h1v1h-1z M15 20 m0 0h1v1h-1z M18 20 m0 0h1v1h-1z M20 20 m0 0h1v1h-1z M22 20 m0 0h1v1h-1z M24 20 m0 0h1v1h-1z M25 20 m0 0h1v1h-1z M26 20 m0 0h1v1h-1z M10 21 m0 0h1v1h-1z M12 21 m0 0h1v1h-1z M13 21 m0 0h1v1h-1z M16 21 m0 0h1v1h-1z M17 21 m0 0h1v1h-1z M18 21 m0 0h1v1h-1z M22 21 m0 0h1v1h-1z M26 21 m0 0h1v1h-1z M11 22 m0 0h1v1h-1z M12 22 m0 0h1v1h-1z M18 22 m0 0h1v1h-1z M19 22 m0 0h1v1h-1z M20 22 m0 0h1v1h-1z M21 22 m0 0h1v1h-1z M22 22 m0 0h1v1h-1z M23 22 m0 0h1v1h-1z M25 22 m0 0h1v1h-1z M10 23 m0 0h1v1h-1z M11 23 m0 0h1v1h-1z M16 23 m0 0h1v1h-1z M17 23 m0 0h1v1h-1z M18 23 m0 0h1v1h-1z M19 23 m0 0h1v1h-1z M20 23 m0 0h1v1h-1z M22 23 m0 0h1v1h-1z M23 23 m0 0h1v1h-1z
M24 23 m0 0h1v1h-1z M25 23 m0 0h1v1h-1z M26 23 m0 0h1v1h-1z M10 24 m0 0h1v1h-1z M17 24 m0 0h1v1h-1z M18 24 m0 0h1v1h-1z M19 24 m0 0h1v1h-1z M20 24 m0 0h1v1h-1z M22 24 m0 0h1v1h-1z M24 24 m0 0h1v1h-1z M25 24 m0 0h1v1h-1z M12 25 m0 0h1v1h-1z M13 25 m0 0h1v1h-1z M14 25 m0 0h1v1h-1z M15 25 m0 0h1v1h-1z M19 25 m0 0h1v1h-1z M20 25 m0 0h1v1h-1z M22 25 m0 0h1v1h-1z M24 25 m0 0h1v1h-1z M10 26 m0 0h1v1h-1z M11 26 m0 0h1v1h-1z M13 26 m0 0h1v1h-1z M14 26 m0 0h1v1h-1z M17 26 m0 0h1v1h-1z M19 26 m0 0h1v1h-1z M21 26 m0 0h1v1h-1z M22 26 m0 0h1v1h-1z M23 26 m0 0h1v1h-1z M24 26 m0 0h1v1h-1z M25 26 m0 0h1v1h-1z M26 26 m0 0h1v1h-1z"/>
<path class="outer" fill="#000000" d="M2 2 m0 0h7.02v7.02h-7.02zm1.17 1.17v4.68h4.68v-4.68z"/>
<path class="inner" fill="#000000" d="M2 2 m2 2h3v3h-3z"/>
<path class="outer" fill="#000000" d="M2 20 m0 0h7.02v7.02h-7.02zm1.17 1.17v4.68h4.68v-4.68z"/>
<path class="inner" fill="#000000" d="M2 20 m2 2h3v3h-3z"/>
<path class="outer" fill="#000000" d="M20 2 m0 0h7.02v7.02h-7.02zm1.17 1.17v4.68h4.68v-4.68z"/>
<path class="inner" fill="#000000" d="M20 2 m2 2h3v3h-3z"/>
</svg>
